<svg xmlns="http://www.w3.org/2000/svg" xmlns:xlink="http://www.w3.org/1999/xlink" version="1.1" x="0px" y="0px" viewBox="0 0 220 275" enable-background="new 0 0 220 220" xml:space="preserve"><path d="M192.929,162.929l-34.456-34.456C165.752,117.432,170,104.215,170.001,90c-0.001-38.659-31.341-69.999-70-70  C61.34,20.001,30.001,51.34,30,90c0,38.66,31.341,70,70.001,70c14.366,0,27.716-4.334,38.827-11.756l35.914,34.797  c3.95,3.828,10.199,3.62,13.887-0.46l4.666-5.162C196.982,173.339,196.818,166.818,192.929,162.929z M50.001,90.001  c-0.001-27.614,22.384-50,50-50.001c27.615,0,50,22.387,50,50c-0.001,27.614-22.385,50-50,50.001  C72.385,140.001,50,117.615,50.001,90.001z"/><rect x="92.93" y="66.619" transform="matrix(-0.7071 -0.7071 0.7071 -0.7071 107.0669 224.3497)" width="14.141" height="46.76"/><rect x="92.93" y="66.618" transform="matrix(-0.7071 0.7071 -0.7071 -0.7071 234.3509 82.9315)" width="14.141" height="46.76"/><text x="0" y="235" fill="#000000" font-size="5px" font-weight="bold" font-family="'Helvetica Neue', Helvetica, Arial-Unicode, Arial, Sans-serif">Created by Miguel C Balandrano</text><text x="0" y="240" fill="#000000" font-size="5px" font-weight="bold" font-family="'Helvetica Neue', Helvetica, Arial-Unicode, Arial, Sans-serif">from the Noun Project</text></svg>